# xmcd
#
# Track frame offsets:
#	150
#	29749
#	55635
#	66706
#	98213
#
# Disc length: 1485 seconds
#
# Revision: 1
# Processed by: cddbd v1.5.2PL0 Copyright (c) Steve Scherf et al.
# Submitted via: audiograbber 1.83.01
#
DISCID=4605cb05
DTITLE=Grateful Dead - 78-01-17 Sacramento Memorial Auditorium, Sacramento CA
DYEAR=1900
DGENRE=
TTITLE0=Bertha
TTITLE1=Good Lovin'
TTITLE2=Tuning
TTITLE3=Candyman
TTITLE4=Tuning
EXTD=
EXTT0=
EXTT1=
EXTT2=
EXTT3=
EXTT4=
PLAYORDER=
